<?xml version="1.0" encoding="utf-8"?>
<svg viewBox="-215.702 163.005 835.332 336.995" xmlns="http://www.w3.org/2000/svg" xmlnsXlink="http://www.w3.org/1999/xlink" xmlnsBx="https://boxy-svg.com">
  <defs>
    <linearGradient id="gradient-1-0" gradientUnits="userSpaceOnUse" x1="251.882" y1="78.426" x2="251.882" y2="421.573" gradientTransform="matrix(0.914895, 0, 0, 0.914895, 211.095745, 101.119274)" xlinkHref="#gradient-1" />
    <linearGradient id="gradient-1" bxPinned="true">
      <stop offset="0" style="stop-color: rgb(237, 99, 209);" />
      <stop offset="1" style="stop-color: rgb(237, 37, 123);" />
    </linearGradient>
    <radialGradient gradientUnits="userSpaceOnUse" cx="210.763" cy="357.891" r="299.871" id="gradient-1-2" spreadMethod="pad" gradientTransform="matrix(1, 0, 0, 1, -116.491964, 1.21528)" xlinkHref="#gradient-1" />
  </defs>
  <path d="M 439.819 172.872 C 530.929 172.872 605.053 239.582 605.053 321.581 C 605.053 350.249 595.98 378.015 578.791 402.017 C 582.048 438.021 590.771 464.751 603.438 477.413 C 605.113 479.087 605.531 481.648 604.474 483.764 C 603.531 485.653 601.61 486.815 599.543 486.815 C 599.292 486.815 599.031 486.798 598.774 486.759 C 596.542 486.447 544.725 478.983 507.25 457.361 C 485.963 465.946 463.293 470.291 439.819 470.291 C 385.513 470.291 337.243 446.591 307.107 410.081 C 334.913 430.296 373.95 442.869 417.179 442.869 C 501.609 442.869 570.055 394.902 570.055 335.731 C 570.055 276.56 501.609 228.592 417.179 228.592 C 355.364 228.592 302.119 254.304 278.028 291.3 C 293.612 223.772 360.235 172.872 439.819 172.872 Z" style="stroke-width: 0px; fill: url(#gradient-1-0);" />
  <g transform="matrix(0.716224, 0, 0, 0.716224, 407.934143, 278.512665)" style="" />
  <g transform="matrix(0.716224, 0, 0, 0.716224, 407.934143, 278.512665)" style="" />
  <g transform="matrix(0.716224, 0, 0, 0.716224, 407.934143, 278.512665)" style="" />
  <g transform="matrix(0.716224, 0, 0, 0.716224, 407.934143, 278.512665)" style="" />
  <g transform="matrix(0.716224, 0, 0, 0.716224, 407.934143, 278.512665)" style="" />
  <g transform="matrix(0.716224, 0, 0, 0.716224, 407.934143, 278.512665)" style="" />
  <g transform="matrix(0.716224, 0, 0, 0.716224, 407.934143, 278.512665)" style="" />
  <g transform="matrix(0.716224, 0, 0, 0.716224, 407.934143, 278.512665)" style="" />
  <g transform="matrix(0.716224, 0, 0, 0.716224, 407.934143, 278.512665)" style="" />
  <g transform="matrix(0.716224, 0, 0, 0.716224, 407.934143, 278.512665)" style="" />
  <g transform="matrix(0.716224, 0, 0, 0.716224, 407.934143, 278.512665)" style="" />
  <g transform="matrix(0.716224, 0, 0, 0.716224, 407.934143, 278.512665)" style="" />
  <g transform="matrix(0.716224, 0, 0, 0.716224, 407.934143, 278.512665)" style="" />
  <g transform="matrix(0.716224, 0, 0, 0.716224, 407.934143, 278.512665)" style="" />
  <g transform="matrix(0.716224, 0, 0, 0.716224, 407.934143, 278.512665)" style="" />
  <ellipse style="stroke: rgb(0, 0, 0); stroke-width: 0px; fill: rgb(237, 99, 209);" cx="313.528" cy="275.054" rx="8.651" ry="8.651" />
  <ellipse style="stroke: rgb(0, 0, 0); stroke-width: 0px; fill: rgb(237, 99, 209);" cx="337.568" cy="263.659" rx="12.06" ry="12.06" />
  <ellipse style="stroke: rgb(0, 0, 0); stroke-width: 0px; fill: rgb(237, 99, 209);" cx="369.572" cy="254.078" rx="14.786" ry="14.786" />
  <ellipse style="stroke: rgb(0, 0, 0); stroke-width: 0px; fill: rgb(237, 99, 209);" cx="296.063" cy="286.814" rx="6.488" ry="6.488" />
  <path d="M -163.8392791748047 381.7792663574219 Q -156.6366424560547 381.7792663574219 -151.2528533935547 377.4140319824219 Q -145.8690643310547 373.0487976074219 -145.2870330810547 366.5009460449219 L -132.5550994873047 366.5009460449219 Q -132.9188690185547 373.2670593261719 -137.2113494873047 379.3783874511719 Q -141.5038299560547 385.4897155761719 -148.6700897216797 389.1274108886719 Q -155.8363494873047 392.7651062011719 -163.8392791748047 392.7651062011719 Q -179.9178924560547 392.7651062011719 -189.4122772216797 382.0339050292969 Q -198.9066619873047 371.3027038574219 -198.9066619873047 352.6777038574219 L -198.9066619873047 350.4223327636719 Q -198.9066619873047 338.9272155761719 -194.6869354248047 329.9784851074219 Q -190.4672088623047 321.0297546386719 -182.5734100341797 316.0824890136719 Q -174.6796112060547 311.1352233886719 -163.9120330810547 311.1352233886719 Q -150.6708221435547 311.1352233886719 -141.9039764404297 319.0653991699219 Q -133.1371307373047 326.9955749511719 -132.5550994873047 339.6547546386719 L -145.2870330810547 339.6547546386719 Q -145.8690643310547 332.0155944824219 -151.0709686279297 327.1047058105469 Q -156.2728729248047 322.1938171386719 -163.9120330810547 322.1938171386719 Q -174.1703338623047 322.1938171386719 -179.8087615966797 329.5783386230469 Q -185.4471893310547 336.9628601074219 -185.4471893310547 350.9316101074219 L -185.4471893310547 353.4779968261719 Q -185.4471893310547 367.0829772949219 -179.8451385498047 374.4311218261719 Q -174.2430877685547 381.7792663574219 -163.8392791748047 381.7792663574219 Z M -103.96815490722656 322.1210632324219 Q -95.01942443847656 311.1352233886719 -80.68690490722656 311.1352233886719 Q -55.73231506347656 311.1352233886719 -55.51405334472656 339.2909851074219 L -55.51405334472656 391.3100280761719 L -68.97352600097656 391.3100280761719 L -68.97352600097656 339.2182312011719 Q -69.04627990722656 330.7060241699219 -72.86585998535156 326.6318054199219 Q -76.68544006347656 322.5575866699219 -84.76112365722656 322.5575866699219 Q -91.30897521972656 322.5575866699219 -96.25624084472656 326.0497741699219 Q -101.20350646972656 329.5419616699219 -103.96815490722656 335.2167663574219 L -103.96815490722656 391.3100280761719 L -117.42762756347656 391.3100280761719 L -117.42762756347656 279.5600280761719 L -103.96815490722656 279.5600280761719 Z M 13.237071990966797 391.3100280761719 Q 12.073009490966797 388.9819030761719 11.345470428466797 383.0160827636719 Q 1.9602165222167969 392.7651062011719 -11.062732696533203 392.7651062011719 Q -22.703357696533203 392.7651062011719 -30.160633087158203 386.1808776855469 Q -37.6179084777832 379.5966491699219 -37.6179084777832 369.4838562011719 Q -37.6179084777832 357.1884460449219 -28.269031524658203 350.3859558105469 Q -18.920154571533203 343.5834655761719 -1.9684944152832031 343.5834655761719 L 11.127208709716797 343.5834655761719 L 11.127208709716797 337.3993835449219 Q 11.127208709716797 330.3422546386719 6.907482147216797 326.1589050292969 Q 2.687755584716797 321.9755554199219 -5.533435821533203 321.9755554199219 Q -12.736072540283203 321.9755554199219 -17.610584259033203 325.6132507324219 Q -22.485095977783203 329.2509460449219 -22.485095977783203 334.4164733886719 L -36.0173225402832 334.4164733886719 Q -36.0173225402832 328.5234069824219 -31.833972930908203 323.0304870605469 Q -27.650623321533203 317.5375671386719 -20.484363555908203 314.3363952636719 Q -13.318103790283203 311.1352233886719 -4.733142852783203 311.1352233886719 Q 8.871837615966797 311.1352233886719 16.583751678466797 317.9377136230469 Q 24.295665740966797 324.7402038574219 24.586681365966797 336.6718444824219 L 24.586681365966797 372.9032897949219 Q 24.586681365966797 383.7436218261719 27.351329803466797 390.1459655761719 L 27.351329803466797 391.3100280761719 Z M -9.098377227783203 381.0517272949219 Q -2.768787384033203 381.0517272949219 2.906017303466797 377.7778015136719 Q 8.580821990966797 374.5038757324219 11.127208709716797 369.2655944824219 L 11.127208709716797 353.1142272949219 L 0.5778923034667969 353.1142272949219 Q -24.158435821533203 353.1142272949219 -24.158435821533203 367.5922546386719 Q -24.158435821533203 373.9218444824219 -19.938709259033203 377.4867858886719 Q -15.718982696533203 381.0517272949219 -9.098377227783203 381.0517272949219 Z M 63.93250274658203 293.5287780761719 L 63.93250274658203 312.5903015136719 L 78.62879180908203 312.5903015136719 L 78.62879180908203 322.9941101074219 L 63.93250274658203 322.9941101074219 L 63.93250274658203 371.8119812011719 Q 63.93250274658203 376.5409851074219 65.89685821533203 378.9054870605469 Q 67.86121368408203 381.2699890136719 72.59021759033203 381.2699890136719 Q 74.91834259033203 381.2699890136719 78.99256134033203 380.3969421386719 L 78.99256134033203 391.3100280761719 Q 73.68152618408203 392.7651062011719 68.66150665283203 392.7651062011719 Q 59.64002227783203 392.7651062011719 55.05652618408203 387.3085632324219 Q 50.47303009033203 381.8520202636719 50.47303009033203 371.8119812011719 L 50.47303009033203 322.9941101074219 L 36.14051055908203 322.9941101074219 L 36.14051055908203 312.5903015136719 L 50.47303009033203 312.5903015136719 L 50.47303009033203 293.5287780761719 Z" transform="matrix(1, 0, 0, 1, 0, 0)" style="fill: url(#gradient-1-2); white-space: pre; paint-order: fill;" />
  <path d="M 95.69087982177734 344.2895202636719 L 95.86470794677734 351.9379577636719 Q 98.47212982177734 347.6791687011719 102.38326263427734 345.5497741699219 Q 106.29439544677734 343.4203796386719 111.07466888427734 343.4203796386719 Q 122.19966888427734 343.4203796386719 125.19820404052734 352.5463562011719 Q 127.71871185302734 348.1571960449219 131.93404388427734 345.7887878417969 Q 136.14937591552734 343.4203796386719 141.23384857177734 343.4203796386719 Q 156.35689544677734 343.4203796386719 156.66109466552734 359.9340515136719 L 156.66109466552734 391.3100280761719 L 151.44625091552734 391.3100280761719 L 151.44625091552734 360.3251647949219 Q 151.40279388427734 354.0238952636719 148.73018646240234 350.9819030761719 Q 146.05757904052734 347.9399108886719 140.01705169677734 347.9399108886719 Q 134.41109466552734 348.0268249511719 130.54341888427734 351.5685729980469 Q 126.67574310302734 355.1103210449219 126.24117279052734 360.1947937011719 L 126.24117279052734 391.3100280761719 L 121.02632904052734 391.3100280761719 L 121.02632904052734 359.9340515136719 Q 120.98287200927734 353.8935241699219 118.17989349365234 350.9167175292969 Q 115.37691497802734 347.9399108886719 109.55367279052734 347.9399108886719 Q 104.64302825927734 347.9399108886719 101.12300872802734 350.7428894042969 Q 97.60298919677734 353.5458679199219 95.90816497802734 359.0649108886719 L 95.90816497802734 391.3100280761719 L 90.69332122802734 391.3100280761719 L 90.69332122802734 344.2895202636719 Z M 166.94776916503906 367.1044616699219 Q 166.94776916503906 360.3251647949219 169.57691955566406 354.8930358886719 Q 172.20606994628906 349.4609069824219 177.00807189941406 346.4406433105469 Q 181.81007385253906 343.4203796386719 187.89405822753906 343.4203796386719 Q 197.28077697753906 343.4203796386719 203.10401916503906 350.0041198730469 Q 208.92726135253906 356.5878601074219 208.92726135253906 367.4521179199219 L 208.92726135253906 368.5385437011719 Q 208.92726135253906 375.3612976074219 206.29811096191406 380.8151550292969 Q 203.66896057128906 386.2690124511719 198.88868713378906 389.2240905761719 Q 194.10841369628906 392.1791687011719 187.98097229003906 392.1791687011719 Q 178.63771057128906 392.1791687011719 172.79273986816406 385.5954284667969 Q 166.94776916503906 379.0116882324219 166.94776916503906 368.1474304199219 Z M 172.16261291503906 368.5385437011719 Q 172.16261291503906 376.9692077636719 176.53004455566406 382.3796081542969 Q 180.89747619628906 387.7900085449219 187.98097229003906 387.7900085449219 Q 195.02101135253906 387.7900085449219 199.38844299316406 382.3796081542969 Q 203.75587463378906 376.9692077636719 203.75587463378906 368.1039733886719 L 203.75587463378906 367.1044616699219 Q 203.75587463378906 361.7157897949219 201.75685119628906 357.2397155761719 Q 199.75782775878906 352.7636413574219 196.15089416503906 350.3083190917969 Q 192.54396057128906 347.8529968261719 187.89405822753906 347.8529968261719 Q 180.94093322753906 347.8529968261719 176.55177307128906 353.3068542480469 Q 172.16261291503906 358.7607116699219 172.16261291503906 367.5824890136719 Z M 247.8214111328125 379.3593444824219 Q 247.8214111328125 375.4916687011719 244.7142333984375 373.1449890136719 Q 241.6070556640625 370.7983093261719 235.3492431640625 369.4728698730469 Q 229.0914306640625 368.1474304199219 225.6365966796875 366.4308776855469 Q 222.1817626953125 364.7143249511719 220.5086669921875 362.2372741699219 Q 218.8355712890625 359.7602233886719 218.8355712890625 356.2402038574219 Q 218.8355712890625 350.6777038574219 223.4854736328125 347.0490417480469 Q 228.1353759765625 343.4203796386719 235.3927001953125 343.4203796386719 Q 243.2584228515625 343.4203796386719 248.0169677734375 347.3097839355469 Q 252.7755126953125 351.1991882324219 252.7755126953125 357.4570007324219 L 247.5606689453125 357.4570007324219 Q 247.5606689453125 353.3285827636719 244.1058349609375 350.5907897949219 Q 240.6510009765625 347.8529968261719 235.3927001953125 347.8529968261719 Q 230.2647705078125 347.8529968261719 227.1575927734375 350.1344909667969 Q 224.0504150390625 352.4159851074219 224.0504150390625 356.0663757324219 Q 224.0504150390625 359.5863952636719 226.6361083984375 361.5202331542969 Q 229.2218017578125 363.4540710449219 236.0662841796875 365.0619812011719 Q 242.9107666015625 366.6698913574219 246.3221435546875 368.4950866699219 Q 249.7335205078125 370.3202819824219 251.3848876953125 372.8842468261719 Q 253.0362548828125 375.4482116699219 253.0362548828125 379.0986022949219 Q 253.0362548828125 385.0522155761719 248.2342529296875 388.6156921386719 Q 243.4322509765625 392.1791687011719 235.6968994140625 392.1791687011719 Q 227.4835205078125 392.1791687011719 222.3773193359375 388.2028503417969 Q 217.2711181640625 384.2265319824219 217.2711181640625 378.1425476074219 L 222.4859619140625 378.1425476074219 Q 222.7901611328125 382.7055358886719 226.3319091796875 385.2477722167969 Q 229.8736572265625 387.7900085449219 235.6968994140625 387.7900085449219 Q 241.1290283203125 387.7900085449219 244.4752197265625 385.3998718261719 Q 247.8214111328125 383.0097351074219 247.8214111328125 379.3593444824219 Z M 302.5171813964844 368.2778015136719 Q 302.5171813964844 379.2724304199219 297.6499938964844 385.7257995605469 Q 292.7828063964844 392.1791687011719 284.6128845214844 392.1791687011719 Q 274.9654235839844 392.1791687011719 269.8374938964844 385.3998718261719 L 269.8374938964844 409.3881530761719 L 264.6661071777344 409.3881530761719 L 264.6661071777344 344.2895202636719 L 269.4898376464844 344.2895202636719 L 269.7505798339844 350.9384460449219 Q 274.8350524902344 343.4203796386719 284.4825134277344 343.4203796386719 Q 292.9131774902344 343.4203796386719 297.7151794433594 349.8085632324219 Q 302.5171813964844 356.1967468261719 302.5171813964844 367.5390319824219 Z M 297.3023376464844 367.3652038574219 Q 297.3023376464844 358.3695983886719 293.6084899902344 353.1547546386719 Q 289.9146423339844 347.9399108886719 283.3091735839844 347.9399108886719 Q 278.5289001464844 347.9399108886719 275.0957946777344 350.2431335449219 Q 271.6626892089844 352.5463562011719 269.8374938964844 356.9355163574219 L 269.8374938964844 379.4897155761719 Q 271.7061462402344 383.5312194824219 275.1827087402344 385.6606140136719 Q 278.6592712402344 387.7900085449219 283.3960876464844 387.7900085449219 Q 289.9580993652344 387.7900085449219 293.6302185058594 382.5534362792969 Q 297.3023376464844 377.3168640136719 297.3023376464844 367.3652038574219 Z M 319.21063232421875 352.2421569824219 Q 321.77459716796875 348.0268249511719 325.77264404296875 345.7236022949219 Q 329.77069091796875 343.4203796386719 334.50750732421875 343.4203796386719 Q 342.06903076171875 343.4203796386719 345.76287841796875 347.6791687011719 Q 349.45672607421875 351.9379577636719 349.50018310546875 360.4555358886719 L 349.50018310546875 391.3100280761719 L 344.32879638671875 391.3100280761719 L 344.32879638671875 360.4120788574219 Q 344.28533935546875 354.1108093261719 341.65618896484375 351.0253601074219 Q 339.02703857421875 347.9399108886719 333.24725341796875 347.9399108886719 Q 328.42352294921875 347.9399108886719 324.70794677734375 350.9601745605469 Q 320.99237060546875 353.9804382324219 319.21063232421875 359.1083679199219 L 319.21063232421875 391.3100280761719 L 314.03924560546875 391.3100280761719 L 314.03924560546875 324.5600280761719 L 319.21063232421875 324.5600280761719 Z M 381.0930480957031 392.1791687011719 Q 375.0959777832031 392.1791687011719 370.2505187988281 389.2240905761719 Q 365.4050598144531 386.2690124511719 362.7107238769531 380.9889831542969 Q 360.0163879394531 375.7089538574219 360.0163879394531 369.1469421386719 L 360.0163879394531 367.2782897949219 Q 360.0163879394531 360.4989929199219 362.6455383300781 355.0668640136719 Q 365.2746887207031 349.6347351074219 369.9680480957031 346.5275573730469 Q 374.6614074707031 343.4203796386719 380.1369934082031 343.4203796386719 Q 388.6980285644531 343.4203796386719 393.7173156738281 349.2653503417969 Q 398.7366027832031 355.1103210449219 398.7366027832031 365.2358093261719 L 398.7366027832031 368.1474304199219 L 365.1877746582031 368.1474304199219 L 365.1877746582031 369.1469421386719 Q 365.1877746582031 377.1430358886719 369.7724914550781 382.4665222167969 Q 374.3572082519531 387.7900085449219 381.3103332519531 387.7900085449219 Q 385.4822082519531 387.7900085449219 388.6763000488281 386.2690124511719 Q 391.8703918457031 384.7480163574219 394.4778137207031 381.4018249511719 L 397.7370910644531 383.8788757324219 Q 392.0007629394531 392.1791687011719 381.0930480957031 392.1791687011719 Z M 380.1369934082031 347.8529968261719 Q 374.2702941894531 347.8529968261719 370.2505187988281 352.1552429199219 Q 366.2307434082031 356.4574890136719 365.3616027832031 363.7148132324219 L 393.5652160644531 363.7148132324219 L 393.5652160644531 363.1498718261719 Q 393.3479309082031 356.3705749511719 389.6975402832031 352.1117858886719 Q 386.0471496582031 347.8529968261719 380.1369934082031 347.8529968261719 Z M 430.583251953125 348.7221374511719 Q 428.931884765625 348.4179382324219 427.063232421875 348.4179382324219 Q 422.196044921875 348.4179382324219 418.828125 351.1340026855469 Q 415.460205078125 353.8500671386719 414.026123046875 359.0214538574219 L 414.026123046875 391.3100280761719 L 408.854736328125 391.3100280761719 L 408.854736328125 344.2895202636719 L 413.939208984375 344.2895202636719 L 414.026123046875 351.7641296386719 Q 418.154541015625 343.4203796386719 427.280517578125 343.4203796386719 Q 429.453369140625 343.4203796386719 430.713623046875 343.9853210449219 Z M 456.17352294921875 392.1791687011719 Q 450.17645263671875 392.1791687011719 445.33099365234375 389.2240905761719 Q 440.48553466796875 386.2690124511719 437.79119873046875 380.9889831542969 Q 435.09686279296875 375.7089538574219 435.09686279296875 369.1469421386719 L 435.09686279296875 367.2782897949219 Q 435.09686279296875 360.4989929199219 437.72601318359375 355.0668640136719 Q 440.35516357421875 349.6347351074219 445.04852294921875 346.5275573730469 Q 449.74188232421875 343.4203796386719 455.21746826171875 343.4203796386719 Q 463.77850341796875 343.4203796386719 468.79779052734375 349.2653503417969 Q 473.81707763671875 355.1103210449219 473.81707763671875 365.2358093261719 L 473.81707763671875 368.1474304199219 L 440.26824951171875 368.1474304199219 L 440.26824951171875 369.1469421386719 Q 440.26824951171875 377.1430358886719 444.85296630859375 382.4665222167969 Q 449.43768310546875 387.7900085449219 456.39080810546875 387.7900085449219 Q 460.56268310546875 387.7900085449219 463.75677490234375 386.2690124511719 Q 466.95086669921875 384.7480163574219 469.55828857421875 381.4018249511719 L 472.81756591796875 383.8788757324219 Q 467.08123779296875 392.1791687011719 456.17352294921875 392.1791687011719 Z M 455.21746826171875 347.8529968261719 Q 449.35076904296875 347.8529968261719 445.33099365234375 352.1552429199219 Q 441.31121826171875 356.4574890136719 440.44207763671875 363.7148132324219 L 468.64569091796875 363.7148132324219 L 468.64569091796875 363.1498718261719 Q 468.42840576171875 356.3705749511719 464.77801513671875 352.1117858886719 Q 461.12762451171875 347.8529968261719 455.21746826171875 347.8529968261719 Z" transform="matrix(1, 0, 0, 1, 0, 0)" style="fill: rgb(126, 126, 126); white-space: pre;" />
</svg>